<svg preserveAspectRatio="none" overflow="visible" style="display: block;" width="17.5" height="14" viewBox="0 0 17.5 14" fill="none" xmlns="http://www.w3.org/2000/svg">
<g id="Image">
<path id="Vector" d="M12.25 13.125H5.25C4.76602 13.125 4.375 12.734 4.375 12.25V1.75C4.375 1.26602 4.76602 0.875 5.25 0.875H8.75V3.9375C8.75 4.66211 9.33789 5.25 10.0625 5.25H13.125V12.25C13.125 12.734 12.734 13.125 12.25 13.125ZM10.0625 4.375C9.82187 4.375 9.625 4.17813 9.625 3.9375V0.888672C9.70156 0.907812 9.77266 0.946094 9.82734 1.00352L12.9965 4.17266C13.0539 4.23008 13.0922 4.29844 13.1113 4.375H10.0625ZM5.25 0C4.28477 0 3.5 0.784766 3.5 1.75V12.25C3.5 13.2152 4.28477 14 5.25 14H12.25C13.2152 14 14 13.2152 14 12.25V4.48164C14 4.13437 13.8605 3.80078 13.6145 3.55469L10.448 0.385547C10.202 0.139453 9.86836 0 9.52109 0H5.25ZM6.5625 7C6.32187 7 6.125 7.19687 6.125 7.4375C6.125 7.67813 6.32187 7.875 6.5625 7.875H10.9375C11.1781 7.875 11.375 7.67813 11.375 7.4375C11.375 7.19687 11.1781 7 10.9375 7H6.5625ZM6.5625 8.75C6.32187 8.75 6.125 8.94687 6.125 9.1875C6.125 9.42813 6.32187 9.625 6.5625 9.625H10.9375C11.1781 9.625 11.375 9.42813 11.375 9.1875C11.375 8.94687 11.1781 8.75 10.9375 8.75H6.5625ZM6.5625 10.5C6.32187 10.5 6.125 10.6969 6.125 10.9375C6.125 11.1781 6.32187 11.375 6.5625 11.375H10.9375C11.1781 11.375 11.375 11.1781 11.375 10.9375C11.375 10.6969 11.1781 10.5 10.9375 10.5H6.5625Z" fill="#155DFC"/>
</g>
</svg>
