<svg preserveAspectRatio="none" overflow="visible" style="display: block;" width="17.5" height="14" viewBox="0 0 17.5 14" fill="none" xmlns="http://www.w3.org/2000/svg">
<g id="Image">
<path id="Vector" d="M8.96602 0.0574219C8.83203 -0.0191406 8.66797 -0.0191406 8.53398 0.0574219L2.18203 3.65586C1.91406 3.80898 1.75 4.09063 1.75 4.39688C1.75 4.86719 2.13281 5.25 2.60313 5.25H8.75H14.8969C15.3672 5.25 15.75 4.86719 15.75 4.39688C15.75 4.09063 15.5859 3.80625 15.318 3.65586L8.96602 0.0574219ZM10.1336 4.375C10.2293 4.17539 10.2812 3.95391 10.2812 3.71875C10.2812 2.87383 9.59492 2.1875 8.75 2.1875C7.90508 2.1875 7.21875 2.87383 7.21875 3.71875C7.21875 3.95391 7.2707 4.17539 7.36641 4.375H2.68789L8.75 0.940625L14.8121 4.375H10.1336ZM8.75 3.0625C8.92405 3.0625 9.09097 3.13164 9.21404 3.25471C9.33711 3.37778 9.40625 3.5447 9.40625 3.71875C9.40625 3.8928 9.33711 4.05972 9.21404 4.18279C9.09097 4.30586 8.92405 4.375 8.75 4.375C8.57595 4.375 8.40903 4.30586 8.28596 4.18279C8.16289 4.05972 8.09375 3.8928 8.09375 3.71875C8.09375 3.5447 8.16289 3.37778 8.28596 3.25471C8.40903 3.13164 8.57595 3.0625 8.75 3.0625ZM3.5 9.625C3.25937 9.625 3.0625 9.82187 3.0625 10.0625C3.0625 10.3031 3.25937 10.5 3.5 10.5H14C14.2406 10.5 14.4375 10.3031 14.4375 10.0625C14.4375 9.82187 14.2406 9.625 14 9.625V6.125H13.125V9.625H10.9375V6.125H10.0625V9.625H7.4375V6.125H6.5625V9.625H4.375V6.125H3.5V9.625ZM2.84375 11.375C2.60312 11.375 2.40625 11.5719 2.40625 11.8125C2.40625 12.0531 2.60312 12.25 2.84375 12.25H14.6562C14.8969 12.25 15.0938 12.0531 15.0938 11.8125C15.0938 11.5719 14.8969 11.375 14.6562 11.375H2.84375ZM2.1875 13.125C1.94687 13.125 1.75 13.3219 1.75 13.5625C1.75 13.8031 1.94687 14 2.1875 14H15.3125C15.5531 14 15.75 13.8031 15.75 13.5625C15.75 13.3219 15.5531 13.125 15.3125 13.125H2.1875Z" fill="#111827"/>
</g>
</svg>
