<svg preserveAspectRatio="none" overflow="visible" style="display: block;" width="17.5" height="14" viewBox="0 0 17.5 14" fill="none" xmlns="http://www.w3.org/2000/svg">
<g id="Image">
<path id="Vector" d="M5.6875 0C5.92813 0 6.125 0.196875 6.125 0.4375V1.75H11.375V0.4375C11.375 0.196875 11.5719 0 11.8125 0C12.0531 0 12.25 0.196875 12.25 0.4375V1.75H13.125C14.0902 1.75 14.875 2.53477 14.875 3.5V4.375V5.25V12.25C14.875 13.2152 14.0902 14 13.125 14H4.375C3.40977 14 2.625 13.2152 2.625 12.25V5.25V4.375V3.5C2.625 2.53477 3.40977 1.75 4.375 1.75H5.25V0.4375C5.25 0.196875 5.44687 0 5.6875 0ZM14 5.25H3.5V12.25C3.5 12.734 3.89102 13.125 4.375 13.125H13.125C13.609 13.125 14 12.734 14 12.25V5.25ZM13.125 2.625H4.375C3.89102 2.625 3.5 3.01602 3.5 3.5V4.375H14V3.5C14 3.01602 13.609 2.625 13.125 2.625Z" fill="#111827"/>
</g>
</svg>
